<svg width="29" height="28" viewBox="0 0 29 28" fill="none" xmlns="http://www.w3.org/2000/svg">
<path d="M14.2353 2.38991C14.9835 1.63487 15.8735 1.03506 16.8542 0.62493C17.8349 0.214802 18.8869 0.00243408 19.9499 2.08018e-05C21.0129 -0.00239248 22.0658 0.205196 23.0484 0.610867C24.0309 1.01654 24.9236 1.6123 25.6753 2.36394C26.4269 3.11558 27.0227 4.0083 27.4283 4.99083C27.834 5.97336 28.0416 7.02634 28.0392 8.08932C28.0368 9.1523 27.8244 10.2043 27.4143 11.185C27.0041 12.1657 26.4043 13.0557 25.6493 13.8039L12.8593 26.5939C11.9371 27.4851 10.7016 27.9783 9.4192 27.9673C8.13677 27.9563 6.91 27.4419 6.00322 26.535C5.09644 25.6281 4.58223 24.4012 4.57139 23.1188C4.56056 21.8364 5.05396 20.601 5.94529 19.6789L17.3053 8.31891C17.4939 8.13675 17.7465 8.03596 18.0087 8.03824C18.2709 8.04052 18.5217 8.14569 18.7071 8.33109C18.8925 8.5165 18.9977 8.76732 19 9.02951C19.0022 9.29171 18.9014 9.54431 18.7193 9.73291L7.35929 21.0929C6.83783 21.6389 6.55073 22.3672 6.55939 23.1222C6.56806 23.8771 6.87181 24.5987 7.40566 25.1325C7.93952 25.6664 8.66109 25.9701 9.41603 25.9788C10.171 25.9875 10.8993 25.7004 11.4453 25.1789L24.2353 12.3889C24.8052 11.8265 25.2582 11.1569 25.5682 10.4188C25.8783 9.68056 26.0392 8.88834 26.0419 8.08768C26.0445 7.28703 25.8887 6.49376 25.5835 5.75356C25.2783 5.01336 24.8297 4.34084 24.2635 3.77472C23.6973 3.2086 23.0247 2.76007 22.2845 2.45494C21.5442 2.14982 20.751 1.99413 19.9503 1.99685C19.1497 1.99956 18.3574 2.16062 17.6193 2.47076C16.8811 2.78089 16.2116 3.23397 15.6493 3.80391L1.71929 17.7339C1.62704 17.8294 1.5167 17.9056 1.39469 17.958C1.27269 18.0104 1.14147 18.038 1.00869 18.0392C0.87591 18.0403 0.744231 18.015 0.621334 17.9647C0.498438 17.9145 0.386786 17.8402 0.292893 17.7463C0.199001 17.6524 0.124747 17.5408 0.0744666 17.4179C0.0241857 17.295 -0.00111606 17.1633 3.77567e-05 17.0305C0.00119157 16.8977 0.0287779 16.7665 0.0811869 16.6445C0.133596 16.5225 0.209778 16.4122 0.305288 16.3199L14.2353 2.38991Z" fill="#5294E2"/>
</svg>
