<svg width="36" height="30" viewBox="0 0 36 30" fill="none" xmlns="http://www.w3.org/2000/svg">
<path d="M10.3913 26.6667C8.83461 26.6667 7.34166 26.1399 6.2409 25.2022C5.14015 24.2645 4.52175 22.9927 4.52175 21.6667V8.33333C4.52175 7.00725 5.14015 5.73548 6.2409 4.7978C7.34166 3.86012 8.83461 3.33333 10.3913 3.33333C10.9102 3.33333 11.4079 3.15774 11.7748 2.84518C12.1417 2.53262 12.3478 2.10869 12.3478 1.66667C12.3478 1.22464 12.1417 0.800716 11.7748 0.488155C11.4079 0.175595 10.9102 0 10.3913 0C7.7968 0 5.30856 0.877974 3.47396 2.44078C1.63937 4.00358 0.608704 6.1232 0.608704 8.33333V21.6667C0.608704 23.8768 1.63937 25.9964 3.47396 27.5592C5.30856 29.122 7.7968 30 10.3913 30C10.9102 30 11.4079 29.8244 11.7748 29.5118C12.1417 29.1993 12.3478 28.7754 12.3478 28.3333C12.3478 27.8913 12.1417 27.4674 11.7748 27.1548C11.4079 26.8423 10.9102 26.6667 10.3913 26.6667ZM25.4761 21.1833C25.6595 21.0284 25.805 20.8441 25.9044 20.641C26.0037 20.4379 26.0548 20.22 26.0548 20C26.0548 19.78 26.0037 19.5621 25.9044 19.359C25.805 19.1559 25.6595 18.9716 25.4761 18.8167L20.9761 15L25.4761 11.1833C25.8445 10.8695 26.0515 10.4438 26.0515 10C26.0515 9.55616 25.8445 9.13051 25.4761 8.81667C25.1077 8.50283 24.608 8.32651 24.087 8.32651C23.5659 8.32651 23.0663 8.50283 22.6978 8.81667L18.2174 12.65L13.737 8.81667C13.3685 8.50283 12.8689 8.32651 12.3478 8.32651C11.8268 8.32651 11.3271 8.50283 10.9587 8.81667C10.5903 9.13051 10.3833 9.55616 10.3833 10C10.3833 10.4438 10.5903 10.8695 10.9587 11.1833L15.4587 15L10.9587 18.8167C10.7753 18.9716 10.6298 19.1559 10.5304 19.359C10.4311 19.5621 10.38 19.78 10.38 20C10.38 20.22 10.4311 20.4379 10.5304 20.641C10.6298 20.8441 10.7753 21.0284 10.9587 21.1833C11.1406 21.3395 11.357 21.4635 11.5954 21.5482C11.8338 21.6328 12.0896 21.6763 12.3478 21.6763C12.6061 21.6763 12.8618 21.6328 13.1003 21.5482C13.3387 21.4635 13.5551 21.3395 13.737 21.1833L18.2174 17.35L22.6978 21.1833C22.8797 21.3395 23.0961 21.4635 23.3345 21.5482C23.573 21.6328 23.8287 21.6763 24.087 21.6763C24.3452 21.6763 24.601 21.6328 24.8394 21.5482C25.0778 21.4635 25.2942 21.3395 25.4761 21.1833ZM26.0435 0C25.5246 0 25.0269 0.175595 24.66 0.488155C24.2931 0.800716 24.087 1.22464 24.087 1.66667C24.087 2.10869 24.2931 2.53262 24.66 2.84518C25.0269 3.15774 25.5246 3.33333 26.0435 3.33333C27.6002 3.33333 29.0931 3.86012 30.1939 4.7978C31.2947 5.73548 31.9131 7.00725 31.9131 8.33333V21.6667C31.9131 22.9927 31.2947 24.2645 30.1939 25.2022C29.0931 26.1399 27.6002 26.6667 26.0435 26.6667C25.5246 26.6667 25.0269 26.8423 24.66 27.1548C24.2931 27.4674 24.087 27.8913 24.087 28.3333C24.087 28.7754 24.2931 29.1993 24.66 29.5118C25.0269 29.8244 25.5246 30 26.0435 30C28.638 30 31.1262 29.122 32.9608 27.5592C34.7954 25.9964 35.8261 23.8768 35.8261 21.6667V8.33333C35.8261 6.1232 34.7954 4.00358 32.9608 2.44078C31.1262 0.877974 28.638 0 26.0435 0Z" fill="#7C818C"/>
</svg>
