<svg width="120" height="120" viewBox="0 0 120 120" fill="none" xmlns="http://www.w3.org/2000/svg">
<circle cx="60" cy="60" r="60" fill="#404552"/>
<path d="M91.702 86.299C86.6707 78.0749 78.7722 72.3041 69.5943 69.8567C74.0564 67.7111 77.6246 64.2065 79.7234 59.9079C81.8223 55.6093 82.3295 50.7673 81.1633 46.1627C79.9971 41.5581 77.2254 37.4592 73.2953 34.5269C69.3651 31.5947 64.5055 30 59.5 30C54.4945 30 49.6349 31.5947 45.7047 34.5269C41.7746 37.4592 39.0029 41.5581 37.8367 46.1627C36.6705 50.7673 37.1778 55.6093 39.2766 59.9079C41.3754 64.2065 44.9436 67.7111 49.4057 69.8567C40.2278 72.3011 32.3293 78.0718 27.298 86.299C27.1599 86.5046 27.0671 86.7345 27.0253 86.9749C26.9835 87.2152 26.9936 87.4611 27.0548 87.6977C27.1161 87.9343 27.2273 88.1567 27.3818 88.3516C27.5363 88.5465 27.7309 88.7098 27.9538 88.8317C28.1768 88.9536 28.4235 89.0316 28.6792 89.061C28.9348 89.0904 29.1941 89.0705 29.4414 89.0027C29.6887 88.9348 29.919 88.8203 30.1183 88.6661C30.3176 88.5118 30.4819 88.3211 30.6013 88.1052C36.7145 78.114 47.5154 72.1506 59.5 72.1506C71.4846 72.1506 82.2855 78.114 88.3987 88.1052C88.5181 88.3211 88.6824 88.5118 88.8817 88.6661C89.081 88.8203 89.3113 88.9348 89.5586 89.0027C89.8059 89.0705 90.0652 89.0904 90.3208 89.061C90.5765 89.0316 90.8232 88.9536 91.0462 88.8317C91.2691 88.7098 91.4637 88.5465 91.6182 88.3516C91.7727 88.1567 91.8839 87.9343 91.9452 87.6977C92.0064 87.4611 92.0165 87.2152 91.9747 86.9749C91.9329 86.7345 91.8401 86.5046 91.702 86.299ZM41.0425 51.0784C41.0425 47.6252 42.125 44.2495 44.1532 41.3782C46.1813 38.507 49.064 36.2691 52.4366 34.9476C55.8093 33.6261 59.5205 33.2804 63.1009 33.9541C66.6813 34.6278 69.9701 36.2907 72.5514 38.7324C75.1328 41.1742 76.8907 44.2853 77.6028 47.6722C78.315 51.059 77.9495 54.5696 76.5525 57.76C75.1555 60.9503 72.7898 63.6772 69.7544 65.5957C66.7191 67.5142 63.1505 68.5382 59.5 68.5382C54.6066 68.5326 49.9153 66.6913 46.4551 63.4182C42.9949 60.145 41.0484 55.7073 41.0425 51.0784Z" fill="#5294E2"/>
</svg>
