<svg width="30" height="30" viewBox="0 0 30 30" fill="none" xmlns="http://www.w3.org/2000/svg">
<circle cx="15" cy="15" r="15" fill="#404552"/>
<path d="M22.7789 9.97586L14.9786 7.51591C14.9116 7.4947 14.8391 7.4947 14.7722 7.51591L6.97182 9.97586C6.90725 9.99631 6.8511 10.0354 6.81129 10.0877C6.77149 10.14 6.75005 10.2028 6.75 10.2672V16.4171C6.75 16.4986 6.78424 16.5768 6.84519 16.6345C6.90615 16.6922 6.98882 16.7246 7.07501 16.7246C7.16121 16.7246 7.24388 16.6922 7.30483 16.6345C7.36579 16.5768 7.40003 16.4986 7.40003 16.4171V10.6939L10.9654 11.8185C10.5252 12.3779 10.2248 13.0245 10.0868 13.7096C9.94887 14.3947 9.9769 15.1005 10.1688 15.7738C10.3608 16.4472 10.7116 17.0706 11.195 17.5972C11.6783 18.1238 12.2816 18.5398 12.9594 18.814C11.2645 19.2552 9.79051 20.2846 8.7529 21.7851C8.70993 21.8534 8.69654 21.9347 8.71554 22.0121C8.73455 22.0895 8.78447 22.1569 8.85485 22.2002C8.92523 22.2436 9.01061 22.2594 9.09309 22.2445C9.17557 22.2296 9.24875 22.1851 9.2973 22.1203C10.5827 20.2546 12.6165 19.1845 14.8754 19.1845C17.1342 19.1845 19.168 20.2546 20.4534 22.1195C20.502 22.1843 20.5752 22.2289 20.6576 22.2438C20.7401 22.2587 20.8255 22.2428 20.8959 22.1995C20.9663 22.1561 21.0162 22.0887 21.0352 22.0113C21.0542 21.9339 21.0408 21.8526 20.9978 21.7844C19.9643 20.2838 18.4863 19.2545 16.7913 18.8132C17.4691 18.539 18.0724 18.123 18.5558 17.5964C19.0391 17.0699 19.39 16.4464 19.5819 15.7731C19.7738 15.0997 19.8019 14.3939 19.6639 13.7088C19.5259 13.0237 19.2255 12.3772 18.7853 11.8177L22.7789 10.5578C22.8433 10.5372 22.8993 10.498 22.939 10.4458C22.9787 10.3935 23 10.3308 23 10.2664C23 10.2021 22.9787 10.1394 22.939 10.0871C22.8993 10.0348 22.8433 9.99566 22.7789 9.97509V9.97586ZM19.1006 14.5721C19.1006 15.2135 18.9375 15.8456 18.6249 16.4148C18.3124 16.984 17.8597 17.4738 17.3051 17.8426C16.7504 18.2115 16.11 18.4486 15.4381 18.5341C14.7661 18.6195 14.0823 18.5507 13.4444 18.3334C12.8065 18.1162 12.2332 17.7569 11.7729 17.2859C11.3127 16.815 10.979 16.2461 10.8 15.6274C10.6211 15.0087 10.6021 14.3584 10.7447 13.7313C10.8874 13.1042 11.1874 12.5188 11.6195 12.0245L14.7722 13.0185C14.8391 13.04 14.9116 13.04 14.9786 13.0185L18.1312 12.0245C18.7586 12.7407 19.1015 13.6419 19.1006 14.5721ZM14.8754 12.4027L8.10287 10.2672L14.8754 8.13167L21.6479 10.2672L14.8754 12.4027Z" fill="#5294E2"/>
</svg>
