<svg width="120" height="120" viewBox="0 0 120 120" fill="none" xmlns="http://www.w3.org/2000/svg">
<circle cx="60" cy="60" r="60" fill="#404552"/>
<path d="M87.9968 31.4563H31.004C29.9734 31.4563 28.9851 31.889 28.2563 32.6591C27.5276 33.4293 27.1182 34.4738 27.1182 35.563V84.8428C27.1182 85.932 27.5276 86.9765 28.2563 87.7466C28.9851 88.5168 29.9734 88.9495 31.004 88.9495H35.34C35.5851 88.9491 35.825 88.8752 36.0319 88.7365C36.2388 88.5978 36.4043 88.3999 36.509 88.1658C37.8734 85.1199 40.028 82.546 42.7224 80.7435C45.4167 78.9411 48.5399 77.9842 51.7287 77.9842C54.9175 77.9842 58.0407 78.9411 60.735 80.7435C63.4293 82.546 65.584 85.1199 66.9483 88.1658C67.0531 88.3999 67.2185 88.5978 67.4255 88.7365C67.6324 88.8752 67.8723 88.9491 68.1173 88.9495H87.9968C89.0274 88.9495 90.0158 88.5168 90.7445 87.7466C91.4733 86.9765 91.8827 85.932 91.8827 84.8428V35.563C91.8827 34.4738 91.4733 33.4293 90.7445 32.6591C90.0158 31.889 89.0274 31.4563 87.9968 31.4563ZM89.2921 84.8428C89.2921 85.2058 89.1556 85.554 88.9127 85.8107C88.6698 86.0675 88.3404 86.2117 87.9968 86.2117H68.9172C66.5356 81.4824 62.5092 77.9155 57.687 76.2633C59.8817 74.8841 61.5872 72.7815 62.5415 70.2786C63.4958 67.7757 63.6461 65.0109 62.9694 62.4089C62.2927 59.807 60.8263 57.5118 58.7956 55.8759C56.7648 54.2401 54.2821 53.3542 51.7287 53.3542C49.1753 53.3542 46.6925 54.2401 44.6618 55.8759C42.6311 57.5118 41.1647 59.807 40.488 62.4089C39.8112 65.0109 39.9616 67.7757 40.9159 70.2786C41.8702 72.7815 43.5757 74.8841 45.7703 76.2633C40.9482 77.9155 36.9217 81.4824 34.5402 86.2117H31.004C30.6605 86.2117 30.331 86.0675 30.0881 85.8107C29.8452 85.554 29.7087 85.2058 29.7087 84.8428V35.563C29.7087 35.1999 29.8452 34.8517 30.0881 34.595C30.331 34.3383 30.6605 34.1941 31.004 34.1941H87.9968C88.3404 34.1941 88.6698 34.3383 88.9127 34.595C89.1556 34.8517 89.2921 35.1999 89.2921 35.563V84.8428ZM51.7287 75.2606C49.9354 75.2606 48.1824 74.6986 46.6913 73.6457C45.2002 72.5928 44.0381 71.0963 43.3518 69.3454C42.6656 67.5944 42.486 65.6678 42.8359 63.809C43.1857 61.9503 44.0493 60.2429 45.3173 58.9028C46.5854 57.5627 48.201 56.6501 49.9598 56.2803C51.7186 55.9106 53.5417 56.1004 55.1985 56.8256C56.8553 57.5509 58.2713 58.779 59.2676 60.3548C60.2639 61.9306 60.7957 63.7832 60.7957 65.6784C60.7957 66.9368 60.5612 68.1828 60.1055 69.3454C59.6499 70.5079 58.982 71.5643 58.14 72.454C57.2981 73.3438 56.2985 74.0497 55.1985 74.5312C54.0984 75.0128 52.9194 75.2606 51.7287 75.2606ZM81.5204 43.7763V76.6295C81.5204 76.9925 81.3839 77.3407 81.141 77.5974C80.8981 77.8542 80.5686 77.9984 80.2251 77.9984H75.0439C74.7004 77.9984 74.3709 77.8542 74.128 77.5974C73.8851 77.3407 73.7486 76.9925 73.7486 76.6295C73.7486 76.2664 73.8851 75.9183 74.128 75.6615C74.3709 75.4048 74.7004 75.2606 75.0439 75.2606H78.9298V45.1451H40.0711V49.2518C40.0711 49.6148 39.9346 49.963 39.6917 50.2197C39.4488 50.4765 39.1193 50.6207 38.7758 50.6207C38.4322 50.6207 38.1028 50.4765 37.8599 50.2197C37.617 49.963 37.4805 49.6148 37.4805 49.2518V43.7763C37.4805 43.4132 37.617 43.065 37.8599 42.8083C38.1028 42.5516 38.4322 42.4074 38.7758 42.4074H80.2251C80.5686 42.4074 80.8981 42.5516 81.141 42.8083C81.3839 43.065 81.5204 43.4132 81.5204 43.7763Z" fill="#5294E2"/>
</svg>
